<svg width="140" height="233" viewBox="0 0 140 233" fill="none" xmlns="http://www.w3.org/2000/svg">
<circle cx="10.625" cy="82.625" r="8.625" fill="white"/>
<circle cx="27.875" cy="99.625" r="8.625" fill="white"/>
<circle cx="45.125" cy="82.625" r="8.625" fill="white"/>
<circle cx="62.375" cy="82.625" r="8.625" fill="white"/>
<circle cx="79.625" cy="82.625" r="8.625" fill="white"/>
<circle cx="96.875" cy="82.625" r="8.625" fill="white"/>
<circle cx="114.125" cy="99.875" r="8.625" fill="white"/>
<circle cx="131.375" cy="99.875" r="8.625" fill="white"/>
<circle cx="10.625" cy="42.625" r="8.625" fill="white"/>
<circle cx="27.875" cy="42.625" r="8.625" fill="white"/>
<circle cx="45.125" cy="25.625" r="8.625" fill="white"/>
<circle cx="62.375" cy="42.625" r="8.625" fill="white"/>
<circle cx="79.625" cy="25.625" r="8.625" fill="white"/>
<circle cx="96.875" cy="25.625" r="8.625" fill="white"/>
<circle cx="114.125" cy="8.625" r="8.625" fill="white"/>
<circle cx="131.375" cy="42.875" r="8.625" fill="white"/>
<circle r="8.625" transform="matrix(-1 0 0 1 129.375 223.625)" fill="white"/>
<circle r="8.625" transform="matrix(-1 0 0 1 112.125 223.625)" fill="white"/>
<circle r="8.625" transform="matrix(-1 0 0 1 94.875 206.625)" fill="white"/>
<circle r="8.625" transform="matrix(-1 0 0 1 77.625 223.625)" fill="white"/>
<circle r="8.625" transform="matrix(-1 0 0 1 60.375 206.625)" fill="white"/>
<circle r="8.625" transform="matrix(-1 0 0 1 43.125 206.625)" fill="white"/>
<circle r="8.625" transform="matrix(-1 0 0 1 25.875 189.625)" fill="white"/>
<circle r="8.625" transform="matrix(-1 0 0 1 8.625 223.875)" fill="white"/>
<circle cx="10.625" cy="144.625" r="8.625" fill="white"/>
<circle cx="27.875" cy="144.625" r="8.625" fill="white"/>
<circle cx="45.125" cy="127.625" r="8.625" fill="white"/>
<circle cx="62.375" cy="144.625" r="8.625" fill="white"/>
<circle cx="79.625" cy="161.625" r="8.625" fill="white"/>
<circle cx="96.875" cy="144.625" r="8.625" fill="white"/>
<circle cx="114.125" cy="144.625" r="8.625" fill="white"/>
<circle cx="131.375" cy="161.875" r="8.625" fill="white"/>
</svg>
