<svg width="250" height="671" viewBox="0 0 250 671" fill="none" xmlns="http://www.w3.org/2000/svg">
<path d="M226.541 91.7823C213.308 91.7823 201.872 86.1188 189.352 82.5416C185.925 81.5627 182.615 79.537 178.58 79.537C172.817 79.537 167.053 79.537 161.29 79.537C156.87 79.537 152.38 79.3047 147.967 79.537C145.95 79.6431 142.665 81.8025 140.824 82.8251C138.295 84.2301 135.741 84.7417 133.171 86.1699C129.007 88.4828 125.923 88.2313 122.229 91.5556C118.896 94.5556 117.027 98.4931 114.803 102.497C111.17 109.036 105.554 115.096 104.145 122.849C102.112 134.03 102.195 148.235 105.619 159.188C107.07 163.832 108.133 174.132 112.251 176.706C115.793 178.92 114.279 186.803 115.823 190.199C118.205 195.439 119.182 204.654 119.395 210.381C119.666 217.709 121.122 224.106 122.399 231.13C123.783 238.744 123.074 245.765 125.744 253.24C128.558 261.12 132.246 269.3 135.665 276.993C139.826 286.355 142.158 297.293 144.679 307.096C147.851 319.433 152.139 330.864 156.641 342.869C159.467 350.406 163.274 359.172 163.274 367.303C163.274 375.238 164.493 383.892 165.371 391.794C165.777 395.442 169.311 398.765 170.927 401.998C179.814 419.772 182.595 421.584 181.642 438.734C181.053 449.323 180.621 460.298 180.621 470.821C180.621 479.465 182.024 488.026 185.95 495.879C191.138 506.254 199.64 516.533 200.974 528.533C201.888 536.76 204.155 545.731 205.906 554.044C207.676 562.452 208.481 570.886 210.781 579.102C215.553 596.144 219.348 612.989 223.99 630.011C226.447 639.02 228.058 648.596 232.664 656.656C233.084 657.391 236.53 661.421 234.195 659.604C231.707 657.669 229.491 657.34 228.356 654.275C225.529 646.643 221.596 639.499 219.171 631.598C216.648 623.374 215.438 614.447 211.802 606.654C209.672 602.091 208.63 595.526 205.112 591.801C199.398 585.751 196.638 577.419 191.336 570.939C184.82 562.975 182.526 550.532 178.127 541.346C172.514 529.624 168.442 516.117 161.686 505.063C153.23 491.225 146.554 476.699 141.618 461.184C133.91 436.962 121.653 415.25 108.17 393.834C103.392 386.247 99.5711 377.322 95.9243 369.117C91.1184 358.304 85.1721 348.146 80.2207 337.37C74.3961 324.693 69.102 312.179 64.2905 299.16C51.6666 265.001 37.3601 231.181 25.5135 196.888C20.7155 182.999 15.3696 169.518 10.717 155.56C7.12883 144.796 6.67447 133.327 4.3109 122.396C2.59037 114.438 3.74975 105.885 1.53302 97.905C-1.02865 88.683 1.0228 76.6116 1.0228 67.0649C1.0228 48.1386 8.5536 37.7796 21.205 24.6596C26.4176 19.254 34.9536 10.0615 42.8611 9.18291C53.8918 7.95727 65.2589 4.17429 76.3091 2.20982C95.4458 -1.19226 112.202 2.93689 129.826 10.1467C138.758 13.8006 147.533 17.5832 156.131 21.8818C163.05 25.3417 171.915 29.2894 177.56 34.6374C182.818 39.6189 189.726 42.7822 195.361 47.3929C199.082 50.4376 203.585 55.9704 205.906 60.1485C208.495 64.8085 213.786 68.766 217.868 71.9404C221.036 74.4048 223.026 79.3476 225.748 82.3716C228.033 84.9108 230.485 87.5898 233.174 89.7415C236.677 92.5434 226.431 92.5827 225.521 90.7619" stroke="white" stroke-width="0.2" stroke-linecap="round" stroke-linejoin="round"/>
<path d="M228.541 93.7823C215.308 93.7823 203.872 88.1188 191.352 84.5416C187.925 83.5627 184.615 81.537 180.58 81.537C174.817 81.537 169.053 81.537 163.29 81.537C158.87 81.537 154.38 81.3047 149.967 81.537C147.95 81.6431 144.665 83.8025 142.824 84.8251C140.295 86.2301 137.741 86.7417 135.171 88.1699C131.007 90.4828 127.923 90.2313 124.229 93.5556C120.896 96.5556 119.027 100.493 116.803 104.497C113.17 111.036 107.554 117.096 106.145 124.849C104.112 136.03 104.195 150.235 107.619 161.188C109.07 165.832 110.133 176.132 114.251 178.706C117.793 180.92 116.279 188.803 117.823 192.199C120.205 197.439 121.182 206.654 121.395 212.381C121.666 219.709 123.122 226.106 124.399 233.13C125.783 240.744 125.074 247.765 127.744 255.24C130.558 263.12 134.246 271.3 137.665 278.993C141.826 288.355 144.158 299.293 146.679 309.096C149.851 321.433 154.139 332.864 158.641 344.869C161.467 352.406 165.274 361.172 165.274 369.303C165.274 377.238 166.493 385.892 167.371 393.794C167.777 397.442 171.311 400.765 172.927 403.998C181.814 421.772 184.595 423.584 183.642 440.734C183.053 451.323 182.621 462.298 182.621 472.821C182.621 481.465 184.024 490.026 187.95 497.879C193.138 508.254 201.64 518.533 202.974 530.533C203.888 538.76 206.155 547.731 207.906 556.044C209.676 564.452 210.481 572.886 212.781 581.102C217.553 598.144 221.348 614.989 225.99 632.011C228.447 641.02 230.058 650.596 234.664 658.656C235.084 659.391 238.53 663.421 236.195 661.604C233.707 659.669 231.491 659.34 230.356 656.275C227.529 648.643 223.596 641.499 221.171 633.598C218.648 625.374 217.438 616.447 213.802 608.654C211.672 604.091 210.63 597.526 207.112 593.801C201.398 587.751 198.638 579.419 193.336 572.939C186.82 564.975 184.526 552.532 180.127 543.346C174.514 531.624 170.442 518.117 163.686 507.063C155.23 493.225 148.554 478.699 143.618 463.184C135.91 438.962 123.653 417.25 110.17 395.834C105.392 388.247 101.571 379.322 97.9243 371.117C93.1184 360.304 87.1721 350.146 82.2207 339.37C76.3961 326.693 71.102 314.179 66.2905 301.16C53.6666 267.001 39.3601 233.181 27.5135 198.888C22.7155 184.999 17.3696 171.518 12.717 157.56C9.12883 146.796 8.67447 135.327 6.3109 124.396C4.59037 116.438 5.74975 107.885 3.53302 99.905C0.971347 90.683 3.0228 78.6116 3.0228 69.0649C3.0228 50.1386 10.5536 39.7796 23.205 26.6596C28.4176 21.254 36.9536 12.0615 44.8611 11.1829C55.8918 9.95727 67.2589 6.17429 78.3091 4.20982C97.4458 0.807744 114.202 4.93689 131.826 12.1467C140.758 15.8006 149.533 19.5832 158.131 23.8818C165.05 27.3417 173.915 31.2894 179.56 36.6374C184.818 41.6189 191.726 44.7822 197.361 49.3929C201.082 52.4376 205.585 57.9704 207.906 62.1485C210.495 66.8085 215.786 70.766 219.868 73.9404C223.036 76.4048 225.026 81.3476 227.748 84.3716C230.033 86.9108 232.485 89.5898 235.174 91.7415C238.677 94.5434 228.431 94.5827 227.521 92.7619" stroke="white" stroke-width="0.2" stroke-linecap="round" stroke-linejoin="round"/>
<path d="M231.541 95.7823C218.308 95.7823 206.872 90.1188 194.352 86.5416C190.925 85.5627 187.615 83.537 183.58 83.537C177.817 83.537 172.053 83.537 166.29 83.537C161.87 83.537 157.38 83.3047 152.967 83.537C150.95 83.6431 147.665 85.8025 145.824 86.8251C143.295 88.2301 140.741 88.7417 138.171 90.1699C134.007 92.4828 130.923 92.2313 127.229 95.5556C123.896 98.5556 122.027 102.493 119.803 106.497C116.17 113.036 110.554 119.096 109.145 126.849C107.112 138.03 107.195 152.235 110.619 163.188C112.07 167.832 113.133 178.132 117.251 180.706C120.793 182.92 119.279 190.803 120.823 194.199C123.205 199.439 124.182 208.654 124.395 214.381C124.666 221.709 126.122 228.106 127.399 235.13C128.783 242.744 128.074 249.765 130.744 257.24C133.558 265.12 137.246 273.3 140.665 280.993C144.826 290.355 147.158 301.293 149.679 311.096C152.851 323.433 157.139 334.864 161.641 346.869C164.467 354.406 168.274 363.172 168.274 371.303C168.274 379.238 169.493 387.892 170.371 395.794C170.777 399.442 174.311 402.765 175.927 405.998C184.814 423.772 187.595 425.584 186.642 442.734C186.053 453.323 185.621 464.298 185.621 474.821C185.621 483.465 187.024 492.026 190.95 499.879C196.138 510.254 204.64 520.533 205.974 532.533C206.888 540.76 209.155 549.731 210.906 558.044C212.676 566.452 213.481 574.886 215.781 583.102C220.553 600.144 224.348 616.989 228.99 634.011C231.447 643.02 233.058 652.596 237.664 660.656C238.084 661.391 241.53 665.421 239.195 663.604C236.707 661.669 234.491 661.34 233.356 658.275C230.529 650.643 226.596 643.499 224.171 635.598C221.648 627.374 220.438 618.447 216.802 610.654C214.672 606.091 213.63 599.526 210.112 595.801C204.398 589.751 201.638 581.419 196.336 574.939C189.82 566.975 187.526 554.532 183.127 545.346C177.514 533.624 173.442 520.117 166.686 509.063C158.23 495.225 151.554 480.699 146.618 465.184C138.91 440.962 126.653 419.25 113.17 397.834C108.392 390.247 104.571 381.322 100.924 373.117C96.1184 362.304 90.1721 352.146 85.2207 341.37C79.3961 328.693 74.102 316.179 69.2905 303.16C56.6666 269.001 42.3601 235.181 30.5135 200.888C25.7155 186.999 20.3696 173.518 15.717 159.56C12.1288 148.796 11.6745 137.327 9.3109 126.396C7.59037 118.438 8.74975 109.885 6.53302 101.905C3.97135 92.683 6.0228 80.6116 6.0228 71.0649C6.0228 52.1386 13.5536 41.7796 26.205 28.6596C31.4176 23.254 39.9536 14.0615 47.8611 13.1829C58.8918 11.9573 70.2589 8.17429 81.3091 6.20982C100.446 2.80774 117.202 6.93689 134.826 14.1467C143.758 17.8006 152.533 21.5832 161.131 25.8818C168.05 29.3417 176.915 33.2894 182.56 38.6374C187.818 43.6189 194.726 46.7822 200.361 51.3929C204.082 54.4376 208.585 59.9704 210.906 64.1485C213.495 68.8085 218.786 72.766 222.868 75.9404C226.036 78.4048 228.026 83.3476 230.748 86.3716C233.033 88.9108 235.485 91.5898 238.174 93.7415C241.677 96.5434 231.431 96.5827 230.521 94.7619" stroke="white" stroke-width="0.2" stroke-linecap="round" stroke-linejoin="round"/>
<path d="M234.541 97.7823C221.308 97.7823 209.872 92.1188 197.352 88.5416C193.925 87.5627 190.615 85.537 186.58 85.537C180.817 85.537 175.053 85.537 169.29 85.537C164.87 85.537 160.38 85.3047 155.967 85.537C153.95 85.6431 150.665 87.8025 148.824 88.8251C146.295 90.2301 143.741 90.7417 141.171 92.1699C137.007 94.4828 133.923 94.2313 130.229 97.5556C126.896 100.556 125.027 104.493 122.803 108.497C119.17 115.036 113.554 121.096 112.145 128.849C110.112 140.03 110.195 154.235 113.619 165.188C115.07 169.832 116.133 180.132 120.251 182.706C123.793 184.92 122.279 192.803 123.823 196.199C126.205 201.439 127.182 210.654 127.395 216.381C127.666 223.709 129.122 230.106 130.399 237.13C131.783 244.744 131.074 251.765 133.744 259.24C136.558 267.12 140.246 275.3 143.665 282.993C147.826 292.355 150.158 303.293 152.679 313.096C155.851 325.433 160.139 336.864 164.641 348.869C167.467 356.406 171.274 365.172 171.274 373.303C171.274 381.238 172.493 389.892 173.371 397.794C173.777 401.442 177.311 404.765 178.927 407.998C187.814 425.772 190.595 427.584 189.642 444.734C189.053 455.323 188.621 466.298 188.621 476.821C188.621 485.465 190.024 494.026 193.95 501.879C199.138 512.254 207.64 522.533 208.974 534.533C209.888 542.76 212.155 551.731 213.906 560.044C215.676 568.452 216.481 576.886 218.781 585.102C223.553 602.144 227.348 618.989 231.99 636.011C234.447 645.02 236.058 654.596 240.664 662.656C241.084 663.391 244.53 667.421 242.195 665.604C239.707 663.669 237.491 663.34 236.356 660.275C233.529 652.643 229.596 645.499 227.171 637.598C224.648 629.374 223.438 620.447 219.802 612.654C217.672 608.091 216.63 601.526 213.112 597.801C207.398 591.751 204.638 583.419 199.336 576.939C192.82 568.975 190.526 556.532 186.127 547.346C180.514 535.624 176.442 522.117 169.686 511.063C161.23 497.225 154.554 482.699 149.618 467.184C141.91 442.962 129.653 421.25 116.17 399.834C111.392 392.247 107.571 383.322 103.924 375.117C99.1184 364.304 93.1721 354.146 88.2207 343.37C82.3961 330.693 77.102 318.179 72.2905 305.16C59.6666 271.001 45.3601 237.181 33.5135 202.888C28.7155 188.999 23.3696 175.518 18.717 161.56C15.1288 150.796 14.6745 139.327 12.3109 128.396C10.5904 120.438 11.7498 111.885 9.53302 103.905C6.97135 94.683 9.0228 82.6116 9.0228 73.0649C9.0228 54.1386 16.5536 43.7796 29.205 30.6596C34.4176 25.254 42.9536 16.0615 50.8611 15.1829C61.8918 13.9573 73.2589 10.1743 84.3091 8.20982C103.446 4.80774 120.202 8.93689 137.826 16.1467C146.758 19.8006 155.533 23.5832 164.131 27.8818C171.05 31.3417 179.915 35.2894 185.56 40.6374C190.818 45.6189 197.726 48.7822 203.361 53.3929C207.082 56.4376 211.585 61.9704 213.906 66.1485C216.495 70.8085 221.786 74.766 225.868 77.9404C229.036 80.4048 231.026 85.3476 233.748 88.3716C236.033 90.9108 238.485 93.5898 241.174 95.7415C244.677 98.5434 234.431 98.5827 233.521 96.7619" stroke="white" stroke-width="0.2" stroke-linecap="round" stroke-linejoin="round"/>
<path d="M237.541 99.7823C224.308 99.7823 212.872 94.1188 200.352 90.5416C196.925 89.5627 193.615 87.537 189.58 87.537C183.817 87.537 178.053 87.537 172.29 87.537C167.87 87.537 163.38 87.3047 158.967 87.537C156.95 87.6431 153.665 89.8025 151.824 90.8251C149.295 92.2301 146.741 92.7417 144.171 94.1699C140.007 96.4828 136.923 96.2313 133.229 99.5556C129.896 102.556 128.027 106.493 125.803 110.497C122.17 117.036 116.554 123.096 115.145 130.849C113.112 142.03 113.195 156.235 116.619 167.188C118.07 171.832 119.133 182.132 123.251 184.706C126.793 186.92 125.279 194.803 126.823 198.199C129.205 203.439 130.182 212.654 130.395 218.381C130.666 225.709 132.122 232.106 133.399 239.13C134.783 246.744 134.074 253.765 136.744 261.24C139.558 269.12 143.246 277.3 146.665 284.993C150.826 294.355 153.158 305.293 155.679 315.096C158.851 327.433 163.139 338.864 167.641 350.869C170.467 358.406 174.274 367.172 174.274 375.303C174.274 383.238 175.493 391.892 176.371 399.794C176.777 403.442 180.311 406.765 181.927 409.998C190.814 427.772 193.595 429.584 192.642 446.734C192.053 457.323 191.621 468.298 191.621 478.821C191.621 487.465 193.024 496.026 196.95 503.879C202.138 514.254 210.64 524.533 211.974 536.533C212.888 544.76 215.155 553.731 216.906 562.044C218.676 570.452 219.481 578.886 221.781 587.102C226.553 604.144 230.348 620.989 234.99 638.011C237.447 647.02 239.058 656.596 243.664 664.656C244.084 665.391 247.53 669.421 245.195 667.604C242.707 665.669 240.491 665.34 239.356 662.275C236.529 654.643 232.596 647.499 230.171 639.598C227.648 631.374 226.438 622.447 222.802 614.654C220.672 610.091 219.63 603.526 216.112 599.801C210.398 593.751 207.638 585.419 202.336 578.939C195.82 570.975 193.526 558.532 189.127 549.346C183.514 537.624 179.442 524.117 172.686 513.063C164.23 499.225 157.554 484.699 152.618 469.184C144.91 444.962 132.653 423.25 119.17 401.834C114.392 394.247 110.571 385.322 106.924 377.117C102.118 366.304 96.1721 356.146 91.2207 345.37C85.3961 332.693 80.102 320.179 75.2905 307.16C62.6666 273.001 48.3601 239.181 36.5135 204.888C31.7155 190.999 26.3696 177.518 21.717 163.56C18.1288 152.796 17.6745 141.327 15.3109 130.396C13.5904 122.438 14.7498 113.885 12.533 105.905C9.97135 96.683 12.0228 84.6116 12.0228 75.0649C12.0228 56.1386 19.5536 45.7796 32.205 32.6596C37.4176 27.254 45.9536 18.0615 53.8611 17.1829C64.8918 15.9573 76.2589 12.1743 87.3091 10.2098C106.446 6.80774 123.202 10.9369 140.826 18.1467C149.758 21.8006 158.533 25.5832 167.131 29.8818C174.05 33.3417 182.915 37.2894 188.56 42.6374C193.818 47.6189 200.726 50.7822 206.361 55.3929C210.082 58.4376 214.585 63.9704 216.906 68.1485C219.495 72.8085 224.786 76.766 228.868 79.9404C232.036 82.4048 234.026 87.3476 236.748 90.3716C239.033 92.9108 241.485 95.5898 244.174 97.7415C247.677 100.543 237.431 100.583 236.521 98.7619" stroke="white" stroke-width="0.2" stroke-linecap="round" stroke-linejoin="round"/>
<path d="M240.541 101.782C227.308 101.782 215.872 96.1188 203.352 92.5416C199.925 91.5627 196.615 89.537 192.58 89.537C186.817 89.537 181.053 89.537 175.29 89.537C170.87 89.537 166.38 89.3047 161.967 89.537C159.95 89.6431 156.665 91.8025 154.824 92.8251C152.295 94.2301 149.741 94.7417 147.171 96.1699C143.007 98.4828 139.923 98.2313 136.229 101.556C132.896 104.556 131.027 108.493 128.803 112.497C125.17 119.036 119.554 125.096 118.145 132.849C116.112 144.03 116.195 158.235 119.619 169.188C121.07 173.832 122.133 184.132 126.251 186.706C129.793 188.92 128.279 196.803 129.823 200.199C132.205 205.439 133.182 214.654 133.395 220.381C133.666 227.709 135.122 234.106 136.399 241.13C137.783 248.744 137.074 255.765 139.744 263.24C142.558 271.12 146.246 279.3 149.665 286.993C153.826 296.355 156.158 307.293 158.679 317.096C161.851 329.433 166.139 340.864 170.641 352.869C173.467 360.406 177.274 369.172 177.274 377.303C177.274 385.238 178.493 393.892 179.371 401.794C179.777 405.442 183.311 408.765 184.927 411.998C193.814 429.772 196.595 431.584 195.642 448.734C195.053 459.323 194.621 470.298 194.621 480.821C194.621 489.465 196.024 498.026 199.95 505.879C205.138 516.254 213.64 526.533 214.974 538.533C215.888 546.76 218.155 555.731 219.906 564.044C221.676 572.452 222.481 580.886 224.781 589.102C229.553 606.144 233.348 622.989 237.99 640.011C240.447 649.02 242.058 658.596 246.664 666.656C247.084 667.391 250.53 671.421 248.195 669.604C245.707 667.669 243.491 667.34 242.356 664.275C239.529 656.643 235.596 649.499 233.171 641.598C230.648 633.374 229.438 624.447 225.802 616.654C223.672 612.091 222.63 605.526 219.112 601.801C213.398 595.751 210.638 587.419 205.336 580.939C198.82 572.975 196.526 560.532 192.127 551.346C186.514 539.624 182.442 526.117 175.686 515.063C167.23 501.225 160.554 486.699 155.618 471.184C147.91 446.962 135.653 425.25 122.17 403.834C117.392 396.247 113.571 387.322 109.924 379.117C105.118 368.304 99.1721 358.146 94.2207 347.37C88.3961 334.693 83.102 322.179 78.2905 309.16C65.6666 275.001 51.3601 241.181 39.5135 206.888C34.7155 192.999 29.3696 179.518 24.717 165.56C21.1288 154.796 20.6745 143.327 18.3109 132.396C16.5904 124.438 17.7498 115.885 15.533 107.905C12.9713 98.683 15.0228 86.6116 15.0228 77.0649C15.0228 58.1386 22.5536 47.7796 35.205 34.6596C40.4176 29.254 48.9536 20.0615 56.8611 19.1829C67.8918 17.9573 79.2589 14.1743 90.3091 12.2098C109.446 8.80774 126.202 12.9369 143.826 20.1467C152.758 23.8006 161.533 27.5832 170.131 31.8818C177.05 35.3417 185.915 39.2894 191.56 44.6374C196.818 49.6189 203.726 52.7822 209.361 57.3929C213.082 60.4376 217.585 65.9704 219.906 70.1485C222.495 74.8085 227.786 78.766 231.868 81.9404C235.036 84.4048 237.026 89.3476 239.748 92.3716C242.033 94.9108 244.485 97.5898 247.174 99.7415C250.677 102.543 240.431 102.583 239.521 100.762" stroke="white" stroke-width="0.2" stroke-linecap="round" stroke-linejoin="round"/>
</svg>
