<svg width="1506" height="1882" viewBox="0 0 1506 1882" fill="none" xmlns="http://www.w3.org/2000/svg">
<path d="M464.661 1308.38L464.665 1308.37L464.668 1308.36L499.254 1231.96C502.004 1225.88 506.325 1220.65 511.771 1216.8L521.928 1209.62C534.194 1200.95 536.649 1183.76 527.298 1172C523.674 1167.45 521.702 1161.8 521.702 1155.98V1123.32C521.702 1105.46 529.032 1088.37 541.98 1076.06L553.143 1065.45C559.043 1059.84 562.383 1052.06 562.383 1043.92C562.383 1030.37 553.219 1018.54 540.102 1015.16L536.999 1014.35C527.281 1011.84 519.203 1005.1 514.996 995.99L514.153 994.164C507.73 980.254 510.369 963.839 520.828 952.643L552.511 918.724C557.893 912.961 557.251 903.841 551.114 898.89C541.44 891.086 546.959 875.457 559.387 875.457H572.77C581.547 875.457 589.087 869.228 590.744 860.609L602.134 801.337C606.58 778.2 597.143 754.592 577.973 740.895C567.745 733.588 555.489 729.659 542.919 729.659H525.44C502.3 729.659 481.542 715.43 473.197 693.847C467.765 679.798 468.22 664.152 474.461 650.442L488.633 619.307C496.913 601.117 489.064 579.648 471.005 571.087C448.045 560.204 443.157 529.667 461.572 512.16L489.846 485.282C498.731 476.835 504.898 465.933 507.559 453.966C510.794 439.426 519.212 426.562 531.241 417.778L609.327 360.754L609.328 360.755L609.337 360.747L654.187 323.352C671.816 308.654 698.75 317.645 704.014 339.985C705.376 345.765 708.355 351.037 712.602 355.186L720.003 362.415C741.249 383.168 774.186 386.053 798.716 369.309C806.919 363.709 816.349 360.164 826.21 358.973L851.614 355.904C888.462 351.452 925.541 362.122 954.388 385.476L971.079 398.989C980.556 406.661 987.636 416.889 991.481 428.46L992.177 430.554C1000.48 455.552 1023.87 472.421 1050.21 472.421C1058.02 472.421 1065.76 473.929 1073.01 476.862L1110.23 491.934C1145.21 506.097 1173.45 533.104 1189.15 567.419L1218.34 631.186C1229.83 656.293 1226.84 685.653 1210.53 707.932C1207.4 712.21 1204.72 716.801 1202.54 721.633L1184.11 762.401C1177.48 777.055 1177.14 793.783 1183.17 808.692L1194.82 837.508C1200.8 852.277 1193.38 869.06 1178.44 874.595C1161.63 880.822 1154.61 900.783 1163.8 916.169L1182.27 947.054C1190.9 961.495 1189.59 979.792 1178.98 992.85C1170.06 1003.82 1167.53 1018.65 1172.28 1031.96L1193.66 1091.79C1201.18 1112.81 1219.54 1128.08 1241.59 1131.61C1262.26 1134.93 1279.77 1148.65 1287.93 1167.92L1290.91 1174.96C1302.72 1202.83 1332.42 1218.63 1362.13 1212.83C1370.69 1211.16 1379.51 1211.27 1388.03 1213.15L1389.08 1213.38C1414.91 1219.08 1435.18 1239.1 1441.2 1264.86L1443.53 1274.83C1446.69 1288.3 1453.07 1300.81 1462.12 1311.27L1465 1314.6C1489.28 1342.65 1492.65 1383.18 1473.35 1414.86L1466.63 1425.88C1455.31 1444.45 1435.13 1455.79 1413.38 1455.79C1389.82 1455.79 1368.24 1468.98 1357.51 1489.96L1309.38 1584C1287.69 1626.4 1246.88 1655.75 1199.78 1662.83L1127.71 1673.67C1120.69 1674.72 1113.95 1677.17 1107.89 1680.86L1107.15 1681.31C1082.19 1696.52 1074.46 1729.18 1089.95 1753.96L1104.04 1776.51C1111.18 1787.92 1107.92 1802.94 1096.69 1810.37L1092.66 1813.03C1087.53 1816.42 1080.95 1816.73 1075.53 1813.82C1062.78 1806.99 1047.83 1818.06 1050.64 1832.25L1050.78 1832.98C1052 1839.11 1049.77 1845.41 1044.97 1849.42L1025.81 1865.4C1013.28 1875.86 996.982 1880.67 980.78 1878.7L912.964 1870.43C883.112 1866.79 860.671 1841.45 860.671 1811.37V1804.25C860.671 1783.94 848.248 1765.7 829.351 1758.26C817.74 1753.69 808.31 1744.86 802.981 1733.57L797.208 1721.35C786.293 1698.24 765.398 1681.39 740.495 1675.63L732.629 1673.81C727.252 1672.57 721.987 1670.88 716.889 1668.76L501.795 1579.55C492.115 1575.53 483.626 1569.1 477.139 1560.87L442.455 1516.85C433.134 1505.03 438.341 1487.54 452.613 1482.73C459.94 1480.26 468.025 1481.87 473.857 1486.94L497.118 1507.17C511.8 1519.95 534.782 1513.06 540.024 1494.32C542.741 1484.61 539.708 1474.19 532.199 1467.46L479.307 1420.02C469.662 1411.37 462.093 1400.65 457.162 1388.67C447.201 1364.47 448.783 1337.05 461.463 1314.15L464.661 1308.38Z" stroke="white" stroke-width="0.4"/>
<path d="M41.661 1017.38L41.6649 1017.37L41.6683 1017.36L76.2537 940.957C79.0039 934.881 83.3248 929.649 88.7711 925.801L98.9279 918.623C111.194 909.954 113.649 892.756 104.298 881.002C100.674 876.447 98.7016 870.798 98.7016 864.977V832.32C98.7016 814.455 106.032 797.373 118.98 785.064L130.143 774.451C136.043 768.843 139.383 761.06 139.383 752.92C139.383 739.373 130.219 727.542 117.102 724.156L113.999 723.354C104.281 720.845 96.203 714.103 91.9957 704.99L91.1528 703.164C84.7305 689.254 87.3693 672.839 97.828 661.643L129.511 627.724C134.893 621.961 134.251 612.841 128.114 607.89C118.44 600.086 123.959 584.457 136.387 584.457H149.77C158.547 584.457 166.087 578.228 167.744 569.609L179.134 510.337C183.58 487.2 174.143 463.592 154.973 449.895C144.745 442.588 132.489 438.659 119.919 438.659H102.44C79.3001 438.659 58.5423 424.43 50.1972 402.847C44.7647 388.798 45.2201 373.152 51.4606 359.442L65.633 328.307C73.9127 310.117 66.0643 288.648 48.0048 280.087C25.0448 269.204 20.1568 238.667 38.5724 221.16L66.8456 194.282C75.7306 185.835 81.8975 174.933 84.5594 162.966C87.7936 148.426 96.2121 135.562 108.241 126.778L186.327 69.7544L186.328 69.7548L186.337 69.7465L231.187 32.3521C248.816 17.6536 275.75 26.6448 281.014 48.9855C282.376 54.7648 285.355 60.0371 289.602 64.186L297.003 71.415C318.249 92.1684 351.186 95.0529 375.716 78.3085C383.919 72.7087 393.349 69.1638 403.21 67.9726L428.614 64.9037C465.462 60.4524 502.541 71.1217 531.388 94.4763L548.079 107.989C557.556 115.661 564.636 125.889 568.481 137.46L569.177 139.554C577.484 164.552 600.866 181.421 627.208 181.421C635.023 181.421 642.764 182.929 650.008 185.862L687.231 200.934C722.211 215.097 750.448 242.104 766.153 276.419L795.34 340.186C806.831 365.293 803.845 394.653 787.532 416.932C784.4 421.21 781.72 425.801 779.536 430.633L761.105 471.401C754.481 486.055 754.143 502.783 760.172 517.692L771.823 546.508C777.795 561.277 770.383 578.06 755.444 583.595C738.634 589.822 731.605 609.783 740.805 625.169L759.27 656.054C767.903 670.495 766.588 688.792 755.978 701.85C747.064 712.82 744.525 727.649 749.282 740.96L770.664 800.791C778.177 821.815 796.545 837.077 818.588 840.614C839.257 843.931 856.765 857.649 864.93 876.924L867.913 883.965C879.717 911.831 909.422 927.626 939.126 921.829C947.692 920.157 956.511 920.266 965.034 922.149L966.078 922.379C991.908 928.085 1012.18 948.101 1018.2 973.858L1020.53 983.828C1023.69 997.301 1030.07 1009.81 1039.12 1020.27L1042 1023.6C1066.28 1051.65 1069.65 1092.18 1050.35 1123.86L1043.63 1134.88C1032.31 1153.45 1012.13 1164.79 990.38 1164.79C966.817 1164.79 945.24 1177.98 934.506 1198.96L886.383 1293C864.685 1335.4 823.883 1364.75 776.783 1371.83L704.712 1382.67C697.691 1383.72 690.951 1386.17 684.887 1389.86L684.148 1390.31C659.189 1405.52 651.458 1438.18 666.951 1462.96L681.044 1485.51C688.18 1496.92 684.917 1511.94 673.688 1519.37L669.661 1522.03C664.53 1525.42 657.953 1525.73 652.532 1522.82C639.782 1515.99 624.826 1527.06 627.639 1541.25L627.784 1541.98C628.999 1548.11 626.77 1554.41 621.972 1558.42L602.813 1574.4C590.28 1584.86 573.982 1589.67 557.78 1587.7L489.964 1579.43C460.112 1575.79 437.671 1550.45 437.671 1520.37V1513.25C437.671 1492.94 425.248 1474.7 406.351 1467.26C394.74 1462.69 385.31 1453.86 379.981 1442.57L374.208 1430.35C363.293 1407.24 342.398 1390.39 317.495 1384.63L309.629 1382.81C304.252 1381.57 298.987 1379.88 293.889 1377.76L78.7954 1288.55C69.115 1284.53 60.6259 1278.1 54.1393 1269.87L19.455 1225.85C10.1345 1214.03 15.3414 1196.54 29.6131 1191.73C36.9398 1189.26 45.0248 1190.87 50.8575 1195.94L74.1176 1216.17C88.8003 1228.95 111.782 1222.06 117.024 1203.32C119.741 1193.61 116.708 1183.19 109.199 1176.46L56.3066 1129.02C46.6622 1120.37 39.093 1109.65 34.1623 1097.67C24.2011 1073.47 25.7834 1046.05 38.4625 1023.15L41.661 1017.38Z" stroke="white" stroke-width="0.4"/>
</svg>
