<svg width="125" height="497" viewBox="0 0 125 497" fill="none" xmlns="http://www.w3.org/2000/svg">
<path d="M83.8805 -1.79739e-06L83.8805 31.7655C93.4012 31.7655 99.3106 38.5959 99.3106 47.6482C99.3106 55.5485 94.2219 61.3913 86.671 61.3913C80.1051 61.3913 75.1806 58.5111 63.0335 44.2742L27.0026 2.05735L3.28301 2.05735L3.28301 96.3663L29.547 96.3663L29.547 46.6607L30.2036 46.6607L48.8345 68.304C64.7571 86.7379 73.0466 94.9673 88.9691 94.9673C110.473 94.9673 125 76.5335 125 47.6482C125 19.0099 108.749 -7.10346e-07 83.8805 -1.79739e-06Z" fill="white"/>
<path d="M3.28301 108.799L3.28301 145.338L95.5351 191.669L121.717 191.669L121.717 100.323L95.4531 100.323L95.4531 157.27L94.7965 157.27L3.28301 108.799Z" fill="white"/>
<path d="M52.5279 230.436L52.5279 242.698C52.5279 254.795 48.0138 261.297 39.5601 261.297C32.0092 261.297 27.0026 254.713 27.0026 245.496C27.0026 235.045 32.2554 229.12 38.9856 228.379L38.9856 195.132C15.2659 196.284 1.05041e-05 216.446 9.23424e-06 245.496C7.84573e-06 277.262 14.3631 296.765 37.0158 296.765C52.7741 296.765 62.7052 285.573 64.5929 267.469L65.2495 267.469C67.8759 280.554 77.3966 291.828 92.7446 291.828C113.838 291.828 125 271.666 125 245.332C125 217.763 110.227 198.918 86.8352 198.013L86.8352 229.449C94.5502 230.107 99.6389 235.868 99.6389 245.332C99.6389 253.808 95.453 259.733 87.738 259.733C80.1051 259.733 75.4268 253.479 75.4268 242.698L75.4268 230.436L52.5279 230.436Z" fill="white"/>
<path d="M3.283 308.622L3.283 345.161L95.5351 391.492L121.717 391.492L121.717 300.146L95.453 300.146L95.453 357.094L94.7964 357.094L3.283 308.622Z" fill="white"/>
<path d="M4.06173e-07 447.459C-8.92411e-07 477.167 17.3999 497 43.5817 497C65.9061 497 81.9928 480.953 81.9928 458.569C81.9928 445.978 76.4938 436.349 68.5325 431.988L68.5325 431.329L95.453 433.14L95.453 489.347L121.717 489.347L121.717 405.818L50.1477 401.045L50.1477 431.165C54.9901 433.716 59.176 439.476 59.176 447.377C59.176 457.499 52.5279 464.329 42.761 464.329C33.0762 464.329 26.2639 457.499 26.2639 447.459C26.2639 438.818 31.0243 431.988 38.8214 430.506L38.8214 399.152C16.0867 399.317 1.64001e-06 419.232 4.06173e-07 447.459Z" fill="white"/>
</svg>
