<svg width="22" height="281" viewBox="0 0 22 281" fill="none" xmlns="http://www.w3.org/2000/svg">
<rect y="24.5" width="0.5" height="22" transform="rotate(-90 0 24.5)" fill="white"/>
<rect y="16.5" width="0.5" height="22" transform="rotate(-90 0 16.5)" fill="white"/>
<rect y="8.5" width="0.5" height="22" transform="rotate(-90 0 8.5)" fill="white"/>
<rect y="4.5" width="0.5" height="22" transform="rotate(-90 0 4.5)" fill="white"/>
<rect y="0.5" width="0.5" height="22" transform="rotate(-90 0 0.5)" fill="white"/>
<rect y="40.5" width="0.5" height="22" transform="rotate(-90 0 40.5)" fill="white"/>
<rect y="72.5" width="0.5" height="22" transform="rotate(-90 0 72.5)" fill="white"/>
<rect y="112.5" width="0.5" height="22" transform="rotate(-90 0 112.5)" fill="white"/>
<rect y="152.5" width="0.5" height="22" transform="rotate(-90 0 152.5)" fill="white"/>
<rect y="216.5" width="0.5" height="22" transform="rotate(-90 0 216.5)" fill="white"/>
<rect y="280.5" width="0.5" height="22" transform="rotate(-90 0 280.5)" fill="white"/>
</svg>
